{
    "asset": {
        "version": "2.0",
        "generator": "Open Asset Import Library (assimp v5.0.5eb040c7)"
    },
    "accessors": [
        {
            "bufferView": 0,
            "byteOffset": 0,
            "componentType": 5126,
            "count": 8493,
            "type": "VEC3",
            "max": [
                4.035394191741943,
                0.6464880108833313,
                0.12000399827957154
            ],
            "min": [
                -0.012484000064432621,
                0.07049000263214112,
                -0.12033399939537049
            ]
        },
        {
            "bufferView": 1,
            "byteOffset": 0,
            "componentType": 5126,
            "count": 8493,
            "type": "VEC3",
            "max": [
                1.0,
                0.9999998807907105,
                1.0
            ],
            "min": [
                -1.0,
                -0.9999998807907105,
                -1.0
            ]
        },
        {
            "bufferView": 2,
            "byteOffset": 0,
            "componentType": 5125,
            "count": 37992,
            "type": "SCALAR",
            "max": [
                8492
            ],
            "min": [
                0
            ]
        }
    ],
    "buffers": [
        {
            "byteLength": 355800,
            "uri": "result.bin"
        }
    ],
    "bufferViews": [
        {
            "buffer": 0,
            "byteOffset": 0,
            "byteLength": 101916,
            "target": 34962
        },
        {
            "buffer": 0,
            "byteOffset": 101916,
            "byteLength": 101916,
            "target": 34962
        },
        {
            "buffer": 0,
            "byteOffset": 203832,
            "byteLength": 151968,
            "target": 34963
        }
    ],
    "materials": [
        {
            "name": "DefaultMaterial",
            "pbrMetallicRoughness": {
                "baseColorFactor": [
                    0.6000000238418579,
                    0.6000000238418579,
                    0.6000000238418579,
                    1.0
                ],
                "metallicFactor": 0.0
            }
        },
        {
            "name": "Material.001",
            "pbrMetallicRoughness": {
                "baseColorFactor": [
                    0.6000000238418579,
                    0.6000000238418579,
                    0.6000000238418579,
                    1.0
                ],
                "metallicFactor": 0.0
            }
        }
    ],
    "meshes": [
        {
            "name": "Text",
            "primitives": [
                {
                    "mode": 4,
                    "material": 1,
                    "indices": 2,
                    "attributes": {
                        "POSITION": 0,
                        "NORMAL": 1
                    }
                }
            ]
        }
    ],
    "nodes": [
        {
            "name": "input.obj",
            "children": [
                1
            ]
        },
        {
            "name": "Text",
            "mesh": 0
        }
    ],
    "scenes": [
        {
            "nodes": [
                0
            ]
        }
    ],
    "scene": 0
}